<svg id="visual" viewBox="0 0 900 450" width="900" height="450" xmlns="http://www.w3.org/2000/svg" xmlns:xlink="http://www.w3.org/1999/xlink" version="1.1"><rect x="0" y="0" width="900" height="450" fill="#000000"></rect><path d="M0 163L21.5 156.7C43 150.3 86 137.7 128.8 129.3C171.7 121 214.3 117 257.2 124C300 131 343 149 385.8 161C428.7 173 471.3 179 514.2 178.8C557 178.7 600 172.3 642.8 169.8C685.7 167.3 728.3 168.7 771.2 164.7C814 160.7 857 151.3 878.5 146.7L900 142L900 0L878.5 0C857 0 814 0 771.2 0C728.3 0 685.7 0 642.8 0C600 0 557 0 514.2 0C471.3 0 428.7 0 385.8 0C343 0 300 0 257.2 0C214.3 0 171.7 0 128.8 0C86 0 43 0 21.5 0L0 0Z" fill="#00446a"></path><path d="M0 143L21.5 143.5C43 144 86 145 128.8 142C171.7 139 214.3 132 257.2 129C300 126 343 127 385.8 130.5C428.7 134 471.3 140 514.2 133.7C557 127.3 600 108.7 642.8 104.2C685.7 99.7 728.3 109.3 771.2 116C814 122.7 857 126.3 878.5 128.2L900 130L900 0L878.5 0C857 0 814 0 771.2 0C728.3 0 685.7 0 642.8 0C600 0 557 0 514.2 0C471.3 0 428.7 0 385.8 0C343 0 300 0 257.2 0C214.3 0 171.7 0 128.8 0C86 0 43 0 21.5 0L0 0Z" fill="#002e49"></path><path d="M0 85L21.5 86.7C43 88.3 86 91.7 128.8 94.7C171.7 97.7 214.3 100.3 257.2 98.2C300 96 343 89 385.8 84.5C428.7 80 471.3 78 514.2 82.7C557 87.3 600 98.7 642.8 98C685.7 97.3 728.3 84.7 771.2 83C814 81.3 857 90.7 878.5 95.3L900 100L900 0L878.5 0C857 0 814 0 771.2 0C728.3 0 685.7 0 642.8 0C600 0 557 0 514.2 0C471.3 0 428.7 0 385.8 0C343 0 300 0 257.2 0C214.3 0 171.7 0 128.8 0C86 0 43 0 21.5 0L0 0Z" fill="#001a2a"></path><path d="M0 81L21.5 81.8C43 82.7 86 84.3 128.8 80.7C171.7 77 214.3 68 257.2 63C300 58 343 57 385.8 55.8C428.7 54.7 471.3 53.3 514.2 53.2C557 53 600 54 642.8 57.3C685.7 60.7 728.3 66.3 771.2 65.3C814 64.3 857 56.7 878.5 52.8L900 49L900 0L878.5 0C857 0 814 0 771.2 0C728.3 0 685.7 0 642.8 0C600 0 557 0 514.2 0C471.3 0 428.7 0 385.8 0C343 0 300 0 257.2 0C214.3 0 171.7 0 128.8 0C86 0 43 0 21.5 0L0 0Z" fill="#011825"></path><path d="M0 47L21.5 44.5C43 42 86 37 128.8 34.3C171.7 31.7 214.3 31.3 257.2 33.5C300 35.7 343 40.3 385.8 43.8C428.7 47.3 471.3 49.7 514.2 47.8C557 46 600 40 642.8 34.8C685.7 29.7 728.3 25.3 771.2 23.8C814 22.3 857 23.7 878.5 24.3L900 25L900 0L878.5 0C857 0 814 0 771.2 0C728.3 0 685.7 0 642.8 0C600 0 557 0 514.2 0C471.3 0 428.7 0 385.8 0C343 0 300 0 257.2 0C214.3 0 171.7 0 128.8 0C86 0 43 0 21.5 0L0 0Z" fill="#021520"></path></svg>