<svg id="visual" viewBox="0 0 900 450" width="900" height="450" xmlns="http://www.w3.org/2000/svg" xmlns:xlink="http://www.w3.org/1999/xlink" version="1.1"><rect x="0" y="0" width="900" height="450" fill="#000000"></rect><path d="M0 285L21.5 291.3C43 297.7 86 310.3 128.8 318.7C171.7 327 214.3 331 257.2 324C300 317 343 299 385.8 287C428.7 275 471.3 269 514.2 269.2C557 269.3 600 275.7 642.8 278.2C685.7 280.7 728.3 279.3 771.2 283.3C814 287.3 857 296.7 878.5 301.3L900 306L900 451L878.5 451C857 451 814 451 771.2 451C728.3 451 685.7 451 642.8 451C600 451 557 451 514.2 451C471.3 451 428.7 451 385.8 451C343 451 300 451 257.2 451C214.3 451 171.7 451 128.8 451C86 451 43 451 21.5 451L0 451Z" fill="#00446a"></path><path d="M0 305L21.5 304.5C43 304 86 303 128.8 306C171.7 309 214.3 316 257.2 319C300 322 343 321 385.8 317.5C428.7 314 471.3 308 514.2 314.3C557 320.7 600 339.3 642.8 343.8C685.7 348.3 728.3 338.7 771.2 332C814 325.3 857 321.7 878.5 319.8L900 318L900 451L878.5 451C857 451 814 451 771.2 451C728.3 451 685.7 451 642.8 451C600 451 557 451 514.2 451C471.3 451 428.7 451 385.8 451C343 451 300 451 257.2 451C214.3 451 171.7 451 128.8 451C86 451 43 451 21.5 451L0 451Z" fill="#002e49"></path><path d="M0 363L21.5 361.3C43 359.7 86 356.3 128.8 353.3C171.7 350.3 214.3 347.7 257.2 349.8C300 352 343 359 385.8 363.5C428.7 368 471.3 370 514.2 365.3C557 360.7 600 349.3 642.8 350C685.7 350.7 728.3 363.3 771.2 365C814 366.7 857 357.3 878.5 352.7L900 348L900 451L878.5 451C857 451 814 451 771.2 451C728.3 451 685.7 451 642.8 451C600 451 557 451 514.2 451C471.3 451 428.7 451 385.8 451C343 451 300 451 257.2 451C214.3 451 171.7 451 128.8 451C86 451 43 451 21.5 451L0 451Z" fill="#001a2a"></path><path d="M0 367L21.5 366.2C43 365.3 86 363.7 128.8 367.3C171.7 371 214.3 380 257.2 385C300 390 343 391 385.8 392.2C428.7 393.3 471.3 394.7 514.2 394.8C557 395 600 394 642.8 390.7C685.7 387.3 728.3 381.7 771.2 382.7C814 383.7 857 391.3 878.5 395.2L900 399L900 451L878.5 451C857 451 814 451 771.2 451C728.3 451 685.7 451 642.8 451C600 451 557 451 514.2 451C471.3 451 428.7 451 385.8 451C343 451 300 451 257.2 451C214.3 451 171.7 451 128.8 451C86 451 43 451 21.5 451L0 451Z" fill="#011825"></path><path d="M0 401L21.5 403.5C43 406 86 411 128.8 413.7C171.7 416.3 214.3 416.7 257.2 414.5C300 412.3 343 407.7 385.8 404.2C428.7 400.7 471.3 398.3 514.2 400.2C557 402 600 408 642.8 413.2C685.7 418.3 728.3 422.7 771.2 424.2C814 425.7 857 424.3 878.5 423.7L900 423L900 451L878.5 451C857 451 814 451 771.2 451C728.3 451 685.7 451 642.8 451C600 451 557 451 514.2 451C471.3 451 428.7 451 385.8 451C343 451 300 451 257.2 451C214.3 451 171.7 451 128.8 451C86 451 43 451 21.5 451L0 451Z" fill="#021520"></path></svg>